<svg xmlns="http://www.w3.org/2000/svg" xmlns:xlink="http://www.w3.org/1999/xlink" width="1200" zoomAndPan="magnify" viewBox="0 0 900 899.99999" height="1200" preserveAspectRatio="xMidYMid meet" version="1.0"><defs><clipPath id="e2aab7cc19"><path d="M 261.238281 51.160156 L 638.488281 51.160156 L 638.488281 810 L 261.238281 810 Z M 261.238281 51.160156 " clip-rule="nonzero"/></clipPath><clipPath id="0e474a79f0"><path d="M 261.238281 518 L 430 518 L 430 687 L 261.238281 687 Z M 261.238281 518 " clip-rule="nonzero"/></clipPath></defs><g clip-path="url(#e2aab7cc19)"><path fill="#141e22" d="M 516.605469 51.160156 L 516.605469 580.613281 C 516.605469 684.734375 432.199219 769.144531 328.074219 769.144531 C 304.605469 769.144531 282.15625 764.820312 261.425781 756.980469 C 301.277344 790.078125 352.472656 809.996094 408.328125 809.996094 C 535.394531 809.996094 638.402344 706.988281 638.402344 579.917969 L 638.402344 254.175781 C 638.402344 166.261719 589.074219 89.894531 516.605469 51.160156 Z M 516.605469 51.160156 " fill-opacity="1" fill-rule="nonzero"/></g><g clip-path="url(#0e474a79f0)"><path fill="#141e22" d="M 429.609375 602.730469 C 429.609375 604.105469 429.574219 605.480469 429.507812 606.855469 C 429.4375 608.230469 429.339844 609.601562 429.203125 610.972656 C 429.066406 612.34375 428.898438 613.707031 428.699219 615.070312 C 428.496094 616.429688 428.261719 617.785156 427.992188 619.136719 C 427.722656 620.484375 427.421875 621.828125 427.089844 623.164062 C 426.753906 624.496094 426.386719 625.824219 425.988281 627.140625 C 425.585938 628.457031 425.15625 629.761719 424.691406 631.058594 C 424.230469 632.355469 423.734375 633.636719 423.207031 634.910156 C 422.679688 636.179688 422.121094 637.4375 421.535156 638.683594 C 420.945312 639.925781 420.328125 641.15625 419.679688 642.371094 C 419.03125 643.582031 418.351562 644.78125 417.644531 645.960938 C 416.9375 647.140625 416.199219 648.304688 415.4375 649.449219 C 414.671875 650.59375 413.878906 651.71875 413.058594 652.824219 C 412.238281 653.929688 411.394531 655.011719 410.519531 656.078125 C 409.648438 657.140625 408.75 658.183594 407.824219 659.203125 C 406.898438 660.222656 405.953125 661.21875 404.980469 662.191406 C 404.003906 663.164062 403.007812 664.113281 401.988281 665.035156 C 400.96875 665.960938 399.929688 666.859375 398.863281 667.734375 C 397.800781 668.605469 396.714844 669.453125 395.609375 670.273438 C 394.503906 671.089844 393.378906 671.882812 392.234375 672.648438 C 391.089844 673.414062 389.929688 674.148438 388.75 674.855469 C 387.566406 675.5625 386.371094 676.242188 385.15625 676.890625 C 383.945312 677.539062 382.714844 678.160156 381.472656 678.746094 C 380.226562 679.335938 378.96875 679.894531 377.699219 680.417969 C 376.425781 680.945312 375.144531 681.441406 373.847656 681.90625 C 372.550781 682.367188 371.246094 682.800781 369.929688 683.199219 C 368.609375 683.597656 367.285156 683.964844 365.949219 684.300781 C 364.613281 684.632812 363.273438 684.9375 361.921875 685.203125 C 360.574219 685.472656 359.21875 685.707031 357.855469 685.910156 C 356.496094 686.113281 355.128906 686.28125 353.761719 686.414062 C 352.390625 686.550781 351.019531 686.652344 349.644531 686.71875 C 348.269531 686.785156 346.894531 686.820312 345.519531 686.820312 C 344.140625 686.820312 342.765625 686.785156 341.390625 686.71875 C 340.015625 686.652344 338.644531 686.550781 337.273438 686.414062 C 335.90625 686.28125 334.539062 686.113281 333.179688 685.910156 C 331.816406 685.707031 330.460938 685.472656 329.113281 685.203125 C 327.761719 684.9375 326.421875 684.632812 325.085938 684.300781 C 323.75 683.964844 322.425781 683.597656 321.109375 683.199219 C 319.789062 682.800781 318.484375 682.367188 317.1875 681.90625 C 315.894531 681.441406 314.609375 680.945312 313.335938 680.417969 C 312.066406 679.894531 310.808594 679.335938 309.5625 678.746094 C 308.320312 678.160156 307.089844 677.539062 305.878906 676.890625 C 304.664062 676.242188 303.46875 675.5625 302.285156 674.855469 C 301.105469 674.148438 299.945312 673.414062 298.800781 672.648438 C 297.65625 671.882812 296.53125 671.089844 295.425781 670.273438 C 294.320312 669.453125 293.234375 668.605469 292.171875 667.734375 C 291.109375 666.859375 290.066406 665.960938 289.046875 665.035156 C 288.027344 664.113281 287.03125 663.164062 286.058594 662.191406 C 285.082031 661.21875 284.136719 660.222656 283.210938 659.203125 C 282.285156 658.183594 281.386719 657.140625 280.515625 656.078125 C 279.640625 655.011719 278.796875 653.929688 277.976562 652.824219 C 277.15625 651.71875 276.363281 650.59375 275.597656 649.449219 C 274.835938 648.304688 274.097656 647.140625 273.390625 645.960938 C 272.683594 644.78125 272.003906 643.582031 271.355469 642.371094 C 270.707031 641.15625 270.089844 639.925781 269.5 638.683594 C 268.914062 637.4375 268.355469 636.179688 267.828125 634.910156 C 267.300781 633.636719 266.804688 632.355469 266.34375 631.058594 C 265.878906 629.761719 265.449219 628.457031 265.046875 627.140625 C 264.648438 625.824219 264.28125 624.496094 263.949219 623.164062 C 263.613281 621.828125 263.3125 620.484375 263.042969 619.136719 C 262.773438 617.785156 262.539062 616.429688 262.335938 615.070312 C 262.136719 613.707031 261.96875 612.34375 261.832031 610.972656 C 261.699219 609.601562 261.597656 608.230469 261.527344 606.855469 C 261.460938 605.480469 261.425781 604.105469 261.425781 602.730469 C 261.425781 601.355469 261.460938 599.976562 261.527344 598.605469 C 261.597656 597.230469 261.699219 595.855469 261.832031 594.488281 C 261.96875 593.117188 262.136719 591.753906 262.335938 590.390625 C 262.539062 589.03125 262.773438 587.675781 263.042969 586.324219 C 263.3125 584.976562 263.613281 583.632812 263.949219 582.296875 C 264.28125 580.960938 264.648438 579.636719 265.046875 578.320312 C 265.449219 577.003906 265.878906 575.695312 266.34375 574.402344 C 266.804688 573.105469 267.300781 571.820312 267.828125 570.550781 C 268.355469 569.277344 268.914062 568.019531 269.5 566.777344 C 270.089844 565.53125 270.707031 564.304688 271.355469 563.089844 C 272.003906 561.875 272.683594 560.679688 273.390625 559.5 C 274.097656 558.320312 274.835938 557.15625 275.597656 556.011719 C 276.363281 554.867188 277.15625 553.742188 277.976562 552.636719 C 278.796875 551.53125 279.640625 550.449219 280.515625 549.382812 C 281.386719 548.320312 282.285156 547.277344 283.210938 546.257812 C 284.136719 545.238281 285.082031 544.242188 286.058594 543.269531 C 287.03125 542.296875 288.027344 541.347656 289.046875 540.421875 C 290.066406 539.5 291.109375 538.601562 292.171875 537.726562 C 293.234375 536.855469 294.320312 536.007812 295.425781 535.1875 C 296.53125 534.367188 297.65625 533.574219 298.800781 532.8125 C 299.945312 532.046875 301.105469 531.3125 302.285156 530.601562 C 303.46875 529.894531 304.664062 529.21875 305.878906 528.570312 C 307.089844 527.921875 308.320312 527.300781 309.5625 526.714844 C 310.808594 526.125 312.066406 525.566406 313.335938 525.039062 C 314.609375 524.515625 315.894531 524.019531 317.1875 523.554688 C 318.484375 523.089844 319.789062 522.660156 321.109375 522.261719 C 322.425781 521.859375 323.75 521.492188 325.085938 521.160156 C 326.421875 520.824219 327.761719 520.523438 329.113281 520.253906 C 330.460938 519.988281 331.816406 519.75 333.179688 519.550781 C 334.539062 519.347656 335.90625 519.179688 337.273438 519.042969 C 338.644531 518.910156 340.015625 518.808594 341.390625 518.742188 C 342.765625 518.671875 344.140625 518.640625 345.519531 518.640625 C 346.894531 518.640625 348.269531 518.671875 349.644531 518.742188 C 351.019531 518.808594 352.390625 518.910156 353.761719 519.042969 C 355.128906 519.179688 356.496094 519.347656 357.855469 519.550781 C 359.21875 519.75 360.574219 519.988281 361.921875 520.253906 C 363.273438 520.523438 364.613281 520.824219 365.949219 521.160156 C 367.285156 521.492188 368.609375 521.859375 369.929688 522.261719 C 371.246094 522.660156 372.550781 523.089844 373.847656 523.554688 C 375.144531 524.019531 376.425781 524.515625 377.699219 525.039062 C 378.96875 525.566406 380.226562 526.125 381.472656 526.714844 C 382.714844 527.300781 383.945312 527.921875 385.15625 528.570312 C 386.371094 529.21875 387.566406 529.894531 388.75 530.601562 C 389.929688 531.3125 391.089844 532.046875 392.234375 532.8125 C 393.378906 533.574219 394.503906 534.367188 395.609375 535.1875 C 396.714844 536.007812 397.800781 536.855469 398.863281 537.726562 C 399.929688 538.601562 400.96875 539.5 401.988281 540.421875 C 403.007812 541.347656 404.003906 542.296875 404.980469 543.269531 C 405.953125 544.242188 406.898438 545.238281 407.824219 546.257812 C 408.75 547.277344 409.648438 548.320312 410.519531 549.382812 C 411.394531 550.449219 412.238281 551.53125 413.058594 552.636719 C 413.878906 553.742188 414.671875 554.867188 415.4375 556.011719 C 416.199219 557.15625 416.9375 558.320312 417.644531 559.5 C 418.351562 560.679688 419.03125 561.875 419.679688 563.089844 C 420.328125 564.304688 420.945312 565.53125 421.535156 566.777344 C 422.121094 568.019531 422.679688 569.277344 423.207031 570.550781 C 423.734375 571.820312 424.230469 573.105469 424.691406 574.402344 C 425.15625 575.695312 425.585938 577.003906 425.988281 578.320312 C 426.386719 579.636719 426.753906 580.960938 427.089844 582.296875 C 427.421875 583.632812 427.722656 584.976562 427.992188 586.324219 C 428.261719 587.675781 428.496094 589.03125 428.699219 590.390625 C 428.898438 591.753906 429.066406 593.117188 429.203125 594.488281 C 429.339844 595.855469 429.4375 597.230469 429.507812 598.605469 C 429.574219 599.976562 429.609375 601.355469 429.609375 602.730469 Z M 429.609375 602.730469 " fill-opacity="1" fill-rule="nonzero"/></g></svg>